<?xml version="1.0" standalone="no"?>
<!DOCTYPE svg PUBLIC "-//W3C//DTD SVG 20010904//EN"
 "http://www.w3.org/TR/2001/REC-SVG-20010904/DTD/svg10.dtd">
<svg version="1.0" xmlns="http://www.w3.org/2000/svg"
 width="150.000000pt" height="150.000000pt" viewBox="0 0 150.000000 150.000000"
 preserveAspectRatio="xMidYMid meet">
<metadata>
Created by potrace 1.11, written by Peter Selinger 2001-2013
</metadata>
<g transform="translate(0.000000,150.000000) scale(0.100000,-0.100000)"
fill="#000000" stroke="none">
<path d="M89 883 c0 -4 0 -49 1 -100 1 -78 -1 -93 -17 -102 -14 -8 -8 -10 32
-10 39 0 46 2 33 10 -26 15 -25 92 2 119 35 35 81 21 99 -30 12 -35 7 -56 -22
-87 -27 -30 -6 -29 30 1 25 22 28 31 31 102 3 57 9 82 21 91 13 10 8 12 -31
13 -51 0 -58 -5 -31 -25 9 -7 14 -19 10 -28 -5 -12 -12 -14 -35 -8 -19 6 -39
4 -60 -4 l-31 -14 -3 36 c-2 20 -9 38 -15 41 -7 2 -13 0 -14 -5z"/>
<path d="M379 805 c-45 -24 -46 -100 -2 -123 23 -12 121 -13 129 -1 3 5 0 8
-8 7 -9 -2 -13 13 -15 57 -1 33 -2 64 -2 69 -1 5 -7 4 -13 -2 -8 -5 -22 -6
-33 -1 -27 10 -26 10 -56 -6z m69 -17 c17 -17 15 -83 -3 -98 -22 -18 -63 2
-71 35 -14 56 38 99 74 63z"/>
<path d="M569 812 c0 -4 0 -31 1 -60 1 -29 -4 -60 -10 -68 -11 -12 -6 -14 26
-14 25 0 34 3 26 9 -9 5 -12 25 -10 62 3 46 6 54 23 54 11 0 19 -6 18 -12 -2
-7 2 -13 7 -13 14 0 12 30 -2 34 -33 10 -78 15 -79 8z"/>
<path d="M718 766 c2 -30 -1 -63 -7 -75 -11 -20 -9 -21 26 -21 31 1 35 3 21
11 -24 13 -25 91 -2 110 37 30 72 -49 44 -101 -10 -18 -8 -20 20 -20 28 0 30
2 20 20 -29 54 10 135 47 98 14 -15 15 -23 5 -54 -7 -25 -8 -43 -1 -56 11 -21
31 -25 23 -4 -3 8 -1 30 4 49 15 55 -3 82 -58 84 -25 1 -52 3 -60 4 -8 1 -25
-1 -37 -5 -14 -5 -23 -3 -23 3 0 6 -6 11 -13 11 -10 0 -13 -13 -9 -54z"/>
<path d="M1010 813 c-75 -28 -60 -143 19 -143 71 0 101 80 47 127 -27 23 -39
26 -66 16z m53 -42 c29 -49 17 -91 -25 -91 -19 0 -58 54 -58 81 0 45 58 52 83
10z"/>
<path d="M1160 757 c0 -36 -5 -68 -12 -75 -9 -9 -3 -12 27 -12 30 0 36 3 27
12 -15 15 -16 104 -1 113 5 4 22 4 36 0 24 -6 25 -8 18 -62 -5 -42 -3 -58 7
-64 20 -13 32 -10 19 5 -8 10 -8 21 -1 40 17 45 12 74 -15 92 -21 13 -31 15
-50 6 -15 -7 -26 -8 -30 -2 -15 25 -25 5 -25 -53z"/>
<path d="M1333 761 c-3 -68 18 -98 62 -87 23 6 25 4 25 -28 0 -25 -6 -38 -19
-46 -24 -12 -51 -3 -51 17 0 8 -4 11 -10 8 -16 -10 -11 -34 9 -45 26 -13 90
16 97 45 3 11 4 58 2 104 -3 79 -4 84 -25 86 -13 1 -23 -2 -23 -7 0 -4 5 -8
10 -8 6 0 10 -25 10 -55 0 -55 0 -55 -30 -55 -37 0 -47 19 -33 65 6 20 7 39 1
49 -16 29 -23 17 -25 -43z"/>
</g>
</svg>
